<svg xmlns="http://www.w3.org/2000/svg" width="525" height="525" viewBox="0 0 138.906 138.906"><path d="M85.602-6.387h26.974v26.974H85.602z" style="fill:none;stroke:#000;stroke-width:.800001;stroke-dasharray:none" transform="rotate(45 -24.157 16.275)"/><path d="M80.035-11.955h4.164v4.164h-4.164zM114.112-12.087h4.164v4.164h-4.164zM79.885 22.14h4.164v4.164h-4.164z" style="fill:#fff;stroke:#000;stroke-width:.079;stroke-dasharray:none" transform="rotate(45 -24.157 16.275)"/><path d="M65.248 104.697c151.552-151.552 0 0 0 0z" style="fill:#000;stroke:#000;stroke-width:.799998;stroke-dasharray:none" transform="translate(4.433 21.848)"/><path d="M65.325 105.186c-152.654-152.654 0 0 0 0z" style="fill:#000;stroke:#000;stroke-width:.799999;stroke-dasharray:none" transform="translate(4.433 21.848)"/><path d="M-2.487 37.391A67.507 47.411 0 0 1 65.02-10.02a67.507 47.411 0 0 1 67.507 47.411" style="fill:none;stroke:#000;stroke-width:.799999;stroke-dasharray:none" transform="translate(4.433 21.848)"/><path d="M169.957 370.579c-2.265 2.298-4.61 4.542-6.823 6.875-.095.527.641.799.903 1.204l86.339 86.339c.666.31.51-.677.516-1.059l.043-7.527h23.346c.04 2.818-.016 5.656.084 8.462.363.555.83-.313 1.142-.543l86.445-86.445c.253-.541-.552-.828-.8-1.224-2.063-2.03-4.071-4.14-6.168-6.119-1.718-.12-3.481-.017-5.216-.051h-17.254c-.835.548-1.459 1.415-2.212 2.087l-67.694 67.694-69.694-69.694c-.98-.202-2.033-.03-3.04-.087h-19.705l-.212.087z" style="opacity:1;fill:none;stroke:none;stroke-width:3.02363;stroke-dasharray:none" transform="scale(.26458)"/><path d="m62.182 98.869 2.539 2.538" style="opacity:1;fill:none;stroke:#000;stroke-width:.0790001;stroke-dasharray:none" transform="translate(4.787 22.073)"/><path d="m64.707 101.365 2.496-2.496" style="fill:none;stroke:#000;stroke-width:.0790001;stroke-dasharray:none" transform="translate(4.787 22.073)"/><path d="M62.155 96.32h5.075" style="opacity:1;fill:none;stroke:#000;stroke-width:.0790002;stroke-dasharray:none" transform="translate(4.787 22.073)"/><path d="M62.194 96.31v2.58" style="opacity:1;fill:none;stroke:#000;stroke-width:.0790001;stroke-dasharray:none" transform="translate(4.787 22.073)"/><path d="M67.191 96.309v2.58" style="fill:none;stroke:#000;stroke-width:.0790001;stroke-dasharray:none" transform="translate(4.787 22.073)"/><path d="M348.552 360.85c-1.372 1.989-5.005 3.706-4.878 5.897l10.262 10.287c3.643-2.652 6.749-6.605 10.185-9.759 1.301-2.154-3.15-3.946-4.28-5.912-2.082-1.783-3.815-4.407-6.107-5.683l-5.182 5.17zM257.157 270.093c-1.649 1.95-4.151 3.545-5.294 5.705 3.52 3.53 7.04 7.06 10.562 10.588 3.58-2.584 6.623-6.466 9.996-9.548 2.636-1.99-2.288-3.876-3.25-5.716-2.283-2-4.226-4.818-6.72-6.31l-5.294 5.28zM165.538 360.85c-1.372 1.989-5.005 3.706-4.878 5.897l10.263 10.287c3.643-2.652 6.748-6.605 10.184-9.759 1.302-2.154-3.149-3.946-4.28-5.912-2.081-1.783-3.815-4.407-6.107-5.683l-5.182 5.17z" style="opacity:1;fill:#fc0;stroke:none;stroke-width:.298583;stroke-dasharray:none" transform="scale(.26458)"/><path d="M353.714 355.7c-3.305 3.495-7.077 6.635-9.992 10.46 2.338 3.499 5.81 6.32 8.816 9.31.782 1.053 2.061 1.739 2.907.298 2.988-3.005 6.534-5.688 8.812-9.278-.143-1.949-2.586-2.939-3.605-4.455-2.32-2.033-4.4-4.836-6.938-6.335zM170.7 355.7c-3.304 3.495-7.077 6.635-9.992 10.46 2.338 3.499 5.81 6.32 8.816 9.31.783 1.053 2.062 1.739 2.908.298 2.987-3.005 6.534-5.688 8.811-9.278-.143-1.949-2.585-2.939-3.605-4.455-2.32-2.033-4.4-4.836-6.937-6.335zM262.69 265.22c-4.034 2.856-7.218 6.79-10.826 10.153 2.446 3.375 6.033 6.34 9.098 9.39.729.815 1.88 1.926 2.738.574 3.245-3.097 6.715-6.116 9.388-9.715-2.492-3.6-6.064-6.539-9.203-9.638-.367-.256-.704-.778-1.195-.764z" style="opacity:1;fill:#fff;stroke:none;stroke-width:.298583;stroke-dasharray:none" transform="scale(.26458)"/><path d="M353.712 355.706c-3.35 3.501-7.146 6.64-10.003 10.58 2.892 3.634 6.504 7.117 10.093 10.255 1.544.293 2.541-1.987 3.749-2.725 2.229-2.434 4.953-4.617 6.618-7.47-.88-2.7-3.864-4.206-5.605-6.357-1.65-1.294-3.008-3.493-4.852-4.283zM170.698 355.706c-3.35 3.501-7.145 6.64-10.002 10.58 2.891 3.634 6.504 7.117 10.093 10.255 1.544.293 2.541-1.987 3.748-2.725 2.23-2.434 4.953-4.617 6.618-7.47-.88-2.7-3.863-4.206-5.604-6.357-1.65-1.294-3.009-3.493-4.853-4.283z" style="opacity:1;fill:#fc0;stroke:none;stroke-width:.298583;stroke-dasharray:none" transform="scale(.26458)"/><path d="M261.515 46.16c-52.243.293-104.952 11.394-151.4 35.738-33.77 17.834-64.564 43.306-83.583 76.861-11.023 19.544-17.72 41.84-17.544 64.373 33.296 33.584 66.913 66.954 100.333 100.455 12.826 12.707 25.472 25.709 38.41 38.231.814-4.549.74-9.538 1.559-14.239 4.744-35.51 24.821-69.35 55.372-88.542 18.838-11.943 41.355-18.156 63.655-16.646 32.216 1.2 62.71 18.73 82.105 44.177 16.066 20.935 25.422 46.994 26.3 73.354-.757 4.519 2.387.416 3.796-.96l135.693-135.62c-.11-28.525-10.623-56.447-27.284-79.425-8.856-12.455-19.879-23.2-31.181-33.413-40.045-33.368-90.394-52.532-141.569-60.296a353.538 353.538 0 0 0-54.662-4.048Z" style="opacity:1;fill:green;stroke:none;stroke-width:3.02362;stroke-dasharray:none" transform="scale(.26458)"/><path d="M35.105 75.008a29.916 32.44 0 0 1 29.915-32.44 29.916 32.44 0 0 1 29.916 32.44" style="opacity:1;fill:none;stroke:#000;stroke-width:.8;stroke-dasharray:none" transform="translate(4.433 21.848)"/><path d="m227.67 331.53-34.725 34.724c1.666 2.688 4.694 4.812 6.866 7.29 20.864 20.803 41.591 41.748 62.606 62.396 2.262-1.143 3.88-3.78 5.916-5.423 21.375-21.215 42.63-42.554 63.935-63.84-1.666-2.687-4.694-4.811-6.866-7.29-20.862-20.86-41.723-41.722-62.584-62.583-2.688 1.667-4.812 4.694-7.29 6.867l-27.858 27.858z" style="opacity:1;fill:green;stroke:none;stroke-width:3.02362;stroke-dasharray:none" transform="scale(.26458)"/><path d="M261.055 245.052c-31.112.077-61.19 15.644-80.936 39.397-9.53 11.135-16.536 24.248-21.687 37.913-4.865 13.689-7.375 28.23-7.622 42.713 37.199 37.13 74.247 74.415 111.6 111.39 2.398-1.315 4.19-4.042 6.359-5.874 35.105-34.912 70.064-69.971 105.087-104.967.433-13.482-2.07-27.035-6.123-39.884-6.362-18.756-16.663-36.46-31.234-50.027-19.466-19.486-46.863-31.115-74.487-30.662l-.957.001zm7.14 25.05 5.59 5.588c-3.723 3.686-7.336 7.47-11.179 11.03-3.842-3.56-7.456-7.344-11.179-11.03l11.18-11.178 5.588 5.59zm31.457 59.318c12.35 12.348 24.698 24.697 37.047 37.046-24.696 24.63-49.27 49.437-74.103 73.895-24.824-24.497-49.393-49.259-74.083-73.895l74.093-74.092 37.046 37.046zm60.056 31.346 5.69 5.7c-3.794 3.676-7.375 7.686-11.408 11.044-4.007-3.443-7.59-7.35-11.368-11.047l11.396-11.397 5.69 5.7zm-182.92-.11 5.6 5.589c-3.796 3.758-7.487 7.617-11.398 11.246-3.833-3.548-7.457-7.346-11.175-11.024l11.375-11.398 5.598 5.588zm85.818 86.75h9.41c-.199 3.37.396 7.068-.298 10.232-3.036 2.984-5.98 6.066-9.124 8.937-3.235-2.97-6.27-6.17-9.398-9.263v-9.906h9.41z" style="opacity:1;fill:#d38d5f;stroke:none;stroke-width:3.02362;stroke-dasharray:none" transform="scale(.26458)"/></svg>